Coordinates
version=1
nRows=4
nColumns=63
inDegrees=yes

Units are S.I. units (second, meters, Newtons, ...)
If the header above contains a line with 'inDegrees', this indicates whether rotational values are in degrees (yes) or radians (no).

endheader
time	pelvis_tilt	pelvis_list	pelvis_rotation	pelvis_tx	pelvis_ty	pelvis_tz	hip_flexion_r	hip_adduction_r	hip_rotation_r	knee_angle_r	knee_angle_r_beta	ankle_angle_r	subtalar_angle_r	mtp_angle_r	hip_flexion_l	hip_adduction_l	hip_rotation_l	knee_angle_l	knee_angle_l_beta	ankle_angle_l	subtalar_angle_l	mtp_angle_l	L5_S1_Flex_Ext	L5_S1_Lat_Bending	L5_S1_axial_rotation	L4_L5_Flex_Ext	L4_L5_Lat_Bending	L4_L5_axial_rotation	L3_L4_Flex_Ext	L3_L4_Lat_Bending	L3_L4_axial_rotation	L2_L3_Flex_Ext	L2_L3_Lat_Bending	L2_L3_axial_rotation	L1_L2_Flex_Ext	L1_L2_Lat_Bending	L1_L2_axial_rotation	L1_T12_Flex_Ext	L1_T12_Lat_Bending	L1_T12_axial_rotation	Abs_r3	Abs_r2	Abs_r1	Abs_t1	Abs_t2	neck_flexion	neck_bending	neck_rotation	arm_flex_r	arm_add_r	arm_rot_r	elbow_flex_r	pro_sup_r	wrist_flex_r	wrist_dev_r	arm_flex_l	arm_add_l	arm_rot_l	elbow_flex_l	pro_sup_l	wrist_flex_l	wrist_dev_l
      8.80000000	     -4.73026118	     -7.83962068	     87.54886527	      0.28258357	      0.93530517	      0.24452671	     22.89385476	     -2.58202561	      2.78711143	     40.06268348	      0.69922573	     41.63617428	     -7.17915812	      0.00000000	     21.97560233	     -2.17730312	    -19.82327680	     41.11621503	      0.71761333	     41.81394953	     10.82209135	      0.00000000	      0.09157509	     -0.84915349	      1.41869443	      0.17006410	     -1.12937414	      1.50736283	      0.15044871	     -2.06463178	      1.50736283	      0.10466117	     -2.06463178	      1.24135762	      0.08503663	     -1.73159379	      1.15268922	      0.05232601	     -1.31533875	      1.06402082	      0.65411171	     -9.60579405	      7.89035279	      0.00000000	      0.00000000	    -13.93521599	     -5.94388191	     15.30340004	    -16.52354053	    -14.96810193	     30.08546487	    100.39595423	     72.23841111	      3.28248245	     10.35915276	    -13.12292299	    -21.96658091	     29.91729056	    103.59508365	     85.05326295	      3.52410911	     10.00283763
      8.81666667	     -4.56340136	     -8.06665376	     87.53613157	      0.28276644	      0.94683090	      0.24208946	     21.40360429	     -2.66394040	      2.08249899	     36.63681034	      0.63943297	     39.43476499	     -5.93911667	      0.00000000	     21.06984369	     -2.09902664	    -20.09071303	     38.94332628	      0.67968927	     39.63861488	     11.00108227	      0.00000000	      0.11653981	     -0.91725591	      1.55664995	      0.21642608	     -1.21995036	      1.65394057	      0.19146325	     -2.23021603	      1.65394057	      0.13319335	     -2.23021603	      1.36206870	      0.10821887	     -1.87046826	      1.26477808	      0.06659085	     -1.42082941	      1.16748746	      0.83243220	    -10.37618234	      8.65762002	      0.00000000	      0.00000000	    -15.62726033	     -5.28401374	     15.35576022	    -17.52225267	    -15.73855005	     29.78541850	    103.90961611	     73.00087877	      3.03847562	     10.76489344	    -14.49235661	    -22.08060746	     28.16961842	    107.14641375	     85.34767935	      4.08876052	      9.56865129
      8.83333333	     -4.68056857	     -8.10724313	     87.78172310	      0.28215377	      0.96101806	      0.23918275	     19.54802909	     -3.69082370	     -0.50226434	     33.01390062	      0.57620126	     37.19548860	     -1.85566954	      0.00000000	     19.60182985	     -1.61724499	    -20.64359485	     36.12223828	      0.63045199	     36.70056418	     11.78183987	      0.00000000	      0.09838920	     -1.03032681	      1.51485055	      0.18271858	     -1.37033465	      1.60952871	      0.16164361	     -2.50513659	      1.60952871	      0.11244901	     -2.50513659	      1.32549423	      0.09136421	     -2.10104242	      1.23081607	      0.05621959	     -1.59597622	      1.13613791	      0.70278419	    -11.65526288	      8.42514431	      0.00000000	      0.00000000	    -16.88748420	     -4.39717165	     15.96233195	    -18.62446500	    -16.88136610	     30.07278464	    108.38971074	     77.86688442	      1.60541887	     12.68552148	    -17.38356643	    -21.24133385	     24.19829243	    111.72945708	     87.39633926	      7.97439587	     10.13849738
      8.85000000	     -4.22646088	     -8.56110187	     87.83390102	      0.28160027	      0.97634860	      0.23674742	     17.87276528	     -3.44751908	     -1.48763586	     28.78209763	      0.50234237	     33.47902248	     -0.16709916	      0.00000000	     18.58762211	     -1.64492863	    -20.75374708	     33.27820355	      0.58081422	     32.98624122	     11.75895829	      0.00000000	      0.13828799	     -1.08274354	      1.59764404	      0.25681462	     -1.44004891	      1.69749680	      0.22719333	     -2.63258265	      1.69749680	      0.15804934	     -2.63258265	      1.39793854	      0.12841422	     -2.20793063	      1.29808579	      0.07901776	     -1.67716975	      1.19823303	      0.98777726	    -12.24821149	      8.88561688	      0.00000000	      0.00000000	    -17.45860551	     -4.09157912	     15.57464323	    -20.73371256	    -18.33307783	     29.97868879	    112.75151355	     78.87561752	      1.73444259	     12.78257959	    -19.63076344	    -20.61713081	     22.47516426	    116.22728129	     87.63126811	      8.44890430	      9.49579812
